<svg id="visual" viewBox="0 0 1200 400" width="1200" height="400" xmlns="http://www.w3.org/2000/svg" xmlns:xlink="http://www.w3.org/1999/xlink" version="1.1"><rect x="0" y="0" width="1200" height="400" fill="#ffffff"></rect><g transform="translate(598.6177531844777 231.79488103127406)"><path d="M110.5 -132.7C135.3 -110.9 142 -68.6 138.8 -32.5C135.5 3.5 122.3 33.3 101.8 49.4C81.3 65.5 53.5 68 29.2 74.1C5 80.2 -15.6 89.9 -36.8 87.9C-57.9 85.9 -79.6 72.2 -100.2 50.9C-120.7 29.6 -140.1 0.7 -136.3 -24.6C-132.5 -49.9 -105.5 -71.7 -78.9 -93.2C-52.3 -114.6 -26.1 -135.8 8.4 -145.8C42.9 -155.7 85.7 -154.5 110.5 -132.7" fill="none" stroke="#FFD369" stroke-width="1"></path></g></svg>