<svg id="visual" viewBox="0 0 1200 400" width="1200" height="400" xmlns="http://www.w3.org/2000/svg" xmlns:xlink="http://www.w3.org/1999/xlink" version="1.1"><rect x="0" y="0" width="1200" height="400" fill="#ffffff"></rect><g transform="translate(610.3275395519489 241.22430940234844)"><path d="M160.1 -200.4C191.6 -164.3 190.3 -98.8 182 -46.8C173.7 5.3 158.3 43.9 133.2 67.1C108.1 90.2 73.3 98 38.5 114.5C3.7 130.9 -31.2 156.1 -59.2 151C-87.3 145.9 -108.6 110.5 -140.3 72.7C-172 35 -214 -5.1 -206.9 -35C-199.8 -64.8 -143.6 -84.5 -101 -118.6C-58.3 -152.8 -29.1 -201.4 17.6 -222.3C64.3 -243.3 128.6 -236.5 160.1 -200.4" fill="none" stroke="#FFD369" stroke-width="2"></path></g></svg>